<svg xmlns="http://www.w3.org/2000/svg" viewBox="0 0 131.5 47.3" role="img" aria-label="RTA">
<path d="M-0.01 47.29 C51.32 32.99 87.54 28.52 131.54 24.56 C120.78 14.93 109.89 7.0 97.9 -0.02 C67.92 11.19 31.8 29.8 -0.01 47.29 Z" fill="#ed0000"/>
<path d="M77.24 16.93 C77.24 15.2 76.38 14.22 75.87 13.79 C74.58 12.68 73.18 12.65 71.95 12.62 L67.81 12.62 C66.63 13.17 65.44 13.72 64.26 14.27 L64.26 27.13 L67.55 27.13 L67.55 21.0 L70.69 21.0 C70.96 21.38 73.25 25.81 73.93 27.13 L77.86 27.13 C77.23 26.03 75.22 22.53 74.15 20.8 C76.1 20.3 77.24 18.91 77.24 16.93 Z M73.65 17.9 C73.03 18.69 71.95 18.69 71.07 18.69 L67.55 18.69 L67.55 14.97 L71.68 14.97 C72.61 14.98 73.26 15.04 73.68 15.69 C73.89 16.0 74.01 16.39 74.01 16.81 C74.01 17.24 73.89 17.6 73.65 17.9 Z M93.76 12.62 L79.12 12.62 L79.12 15.13 L84.76 15.13 L84.76 27.13 L88.1 27.13 L88.1 15.13 L93.76 15.13 L93.76 12.62 Z M102.57 12.62 L98.54 12.62 L91.27 27.13 L94.82 27.13 L96.46 23.59 L104.26 23.59 L105.87 27.08 C107.05 26.95 108.23 26.82 109.42 26.7 L102.57 12.62 Z M97.67 21.07 L100.53 15.29 L103.12 21.07 L97.67 21.07 Z" fill="#fff"/>
</svg>
